<svg id="Capa_1" enable-background="new 0 0 511.697 511.697" height="512" viewBox="0 0 511.697 511.697" width="512" xmlns="http://www.w3.org/2000/svg"><g><g><g id="XMLID_352_"><g><path d="m463.379 255.849c0 44.42-10.88 81.48-34.65 115.24-38.19 57.02-100.7 92.22-171.51 92.68-46.98.31-90.43-15.05-125.42-41.15-4.45-3.32-4.89-9.83-.96-13.76l278.02-278.02c3.93-3.93 10.44-3.49 13.76.96 1.44 1.93 5.168 7.152 5.168 7.152 23.209 33.51 35.592 73.058 35.592 116.898z" fill="#faf7f7"/></g></g></g><path d="m254.479 47.929c46.98-.31 90.43 15.05 125.42 41.15 4.45 3.32 4.89 9.83.96 13.76l-278.02 278.02c-3.93 3.93-10.44 3.49-13.76-.96-2.04-2.73-4.01-5.52-5.92-8.36l.17-.3c-22.12-32.99-35.01-72.68-35.01-115.39 0-56.33 22.44-107.42 58.86-144.81l-.12-.12c1.79-1.84 3.62-3.65 5.48-5.43 37.05-35.33 87.04-57.2 141.94-57.56z" fill="#faf7f7"/><g><path d="m430.879 80.819c-46.75-46.76-108.91-72.5-175.03-72.5s-128.28 25.74-175.03 72.5c-46.76 46.75-72.5 108.91-72.5 175.03s25.74 128.28 72.5 175.03c46.75 46.76 108.91 72.5 175.03 72.5s128.28-25.74 175.03-72.5c46.76-46.75 72.5-108.91 72.5-175.03s-25.74-128.28-72.5-175.03zm-328.04 300.04c-3.93 3.93-10.44 3.49-13.76-.96-2.04-2.73-4.01-5.52-5.92-8.36l.17-.3c-22.12-32.99-35.01-72.68-35.01-115.39 0-59.1 24.7-112.43 64.34-150.23l-.12-.13c37.05-35.33 87.04-57.2 141.94-57.56 46.98-.31 90.43 15.05 125.42 41.15 4.45 3.32 4.89 9.83.96 13.76l-2.938 2.938 29.103 26.897 1.835-1.835c3.93-3.93 10.44-3.49 13.76.96 1.44 1.93 5.168 7.152 5.168 7.152 23.21 33.51 35.592 73.058 35.592 116.898 0 44.42-10.88 81.48-34.65 115.24-38.19 57.02-100.7 92.22-171.51 92.68-46.98.31-90.43-15.05-125.42-41.15-4.45-3.32-4.89-9.83-.96-13.76l5.782-5.782-30.013-25.986" fill="#fe646f"/></g><g><path d="m496.797 140.613c4.087 0 7.4 3.313 7.4 7.4v215.671c0 4.087-3.313 7.4-7.4 7.4h-481.896c-4.087 0-7.4-3.313-7.4-7.4v-215.671c0-4.087 3.313-7.4 7.4-7.4z" fill="#80d261"/></g><path d="m307.729 140.613-201.122 201.122v-193.722c0-4.087 3.313-7.4 7.4-7.4h-99.106c-4.087 0-7.4 3.313-7.4 7.4v215.671c0 4.087 3.313 7.4 7.4 7.4h189.067l230.472-230.471z" fill="#68ca44"/><g><path d="m437.952 341.084c0-20.018 16.228-36.245 36.245-36.245v-97.982c-20.018 0-36.245-16.227-36.245-36.245h-364.207c0 20.018-16.228 36.245-36.245 36.245v97.982c20.018 0 36.245 16.227 36.245 36.245z" fill="#ade194"/></g><path d="m404.44 170.613h-126.71l-163.352 163.351c-2.867 2.867-7.77.837-7.77-3.219v-160.132h-32.863c0 20.018-16.228 36.245-36.245 36.245v97.982c20.018 0 36.245 16.227 36.245 36.245h160.223z" fill="#97da7b"/><g><g><circle cx="255.849" cy="255.849" fill="#fee45a" r="85.236"/></g></g><path d="m172.876 275.464c7.374 31.333 32.023 55.979 63.356 63.352l102.589-102.585c-7.374-31.333-32.022-55.982-63.355-63.355z" fill="#fedf30"/><path d="m377.921 105.776-271.314 271.314 30.014 25.986 270.403-270.403z" fill="#fe646f"/><path d="m496.797 133.113h-16.892c-44.956-81.967-130.386-132.689-224.056-132.689-93.619 0-179.099 50.739-224.054 132.689h-16.895c-8.216 0-14.9 6.684-14.9 14.9v215.671c0 8.216 6.685 14.9 14.9 14.9h16.895c44.955 81.947 130.445 132.689 224.054 132.689 93.67 0 179.101-50.722 224.057-132.689h16.892c8.216 0 14.9-6.684 14.9-14.9v-215.671c-.001-8.216-6.685-14.9-14.901-14.9zm-481.797 15h309.979l-15 15h-236.234c-4.143 0-7.5 3.358-7.5 7.5 0 15.85-12.895 28.745-28.745 28.745-4.143 0-7.5 3.358-7.5 7.5v97.981c0 4.142 3.357 7.5 7.5 7.5 15.851 0 28.745 12.895 28.745 28.745 0 4.142 3.357 7.5 7.5 7.5h50.763l-15 15h-94.508zm324.979-15h-242.337c37.702-48.475 95.419-77.285 156.881-77.685 43.918-.285 85.715 13.431 120.894 39.666.471.351.599.819.622 1.149.021.282-.015.825-.479 1.29zm-200.471 200.471h-58.906c-3.144-18.124-17.477-32.458-35.602-35.601v-84.269c18.125-3.143 32.458-17.477 35.602-35.602h124.738c-25.4 16.56-42.227 45.218-42.227 77.736 0 15.192 3.708 30.065 10.757 43.373zm357.189 30h-21.368c-.001 0-.002 0-.003 0h-225.994c-4.143 0-7.5 3.358-7.5 7.5s3.357 7.5 7.5 7.5h164.722c-11.194 14.385-24.272 27.186-39.028 38.158-3.323 2.472-4.015 7.17-1.543 10.494 1.472 1.98 3.733 3.025 6.024 3.025 1.556 0 3.125-.482 4.47-1.482 18.929-14.076 35.297-30.951 48.707-50.195h29.952c-43.284 72.908-121.399 117.689-206.788 117.689-85.333 0-163.497-44.798-206.782-117.689h29.844c1.359 1.953 2.742 3.897 4.161 5.8 2.875 3.855 7.281 6.267 12.089 6.615.403.029.806.043 1.207.043 4.402 0 8.639-1.742 11.774-4.877l112.467-112.466c2.929-2.929 2.929-7.678 0-10.606s-7.677-2.93-10.607 0l-24.926 24.926c-4.567-10.046-6.961-21.003-6.961-32.17 0-42.864 34.872-77.736 77.735-77.736 11.166 0 22.122 2.394 32.169 6.961l-55.417 55.417c-2.929 2.929-2.929 7.678 0 10.606 1.465 1.464 3.385 2.197 5.304 2.197s3.839-.732 5.304-2.197l142.957-142.957c3.421-3.421 5.183-8.153 4.833-12.98-.349-4.808-2.76-9.214-6.616-12.09-37.433-27.917-81.836-42.646-128.516-42.646-.478 0-.964.001-1.442.004-69.876.454-135.227 35.06-175.389 92.685h-29.971c43.285-72.894 121.443-117.689 206.784-117.689 85.389 0 163.504 44.781 206.788 117.689h-29.849c-1.362-1.957-2.745-3.902-4.16-5.8-2.875-3.855-7.281-6.267-12.089-6.615-4.844-.348-9.56 1.412-12.981 4.834l-278.027 278.025c-3.421 3.421-5.183 8.153-4.833 12.98.348 4.807 2.759 9.214 6.615 12.09 37.434 27.917 81.837 42.648 128.517 42.646.478 0 .964-.001 1.442-.004 34.224-.223 68.313-8.783 98.582-24.756 3.664-1.933 5.066-6.47 3.133-10.133-1.932-3.663-6.467-5.065-10.133-3.133-28.149 14.854-59.852 22.815-91.68 23.022-43.913.308-85.716-13.431-120.894-39.666-.471-.351-.599-.819-.622-1.149-.021-.283.015-.826.479-1.291l35.579-35.579h45.653c4.143 0 7.5-3.358 7.5-7.5s-3.357-7.5-7.5-7.5h-30.653l15-15h236.235c4.143 0 7.5-3.358 7.5-7.5 0-15.85 12.895-28.745 28.745-28.745 4.143 0 7.5-3.358 7.5-7.5v-97.981c0-4.142-3.357-7.5-7.5-7.5-15.851 0-28.745-12.895-28.745-28.745 0-4.142-3.357-7.5-7.5-7.5h-50.761l15-15h94.507zm-273.018-36.961 102.944-102.943c4.568 10.047 6.962 21.003 6.962 32.169 0 42.864-34.872 77.736-77.736 77.736-11.166-.001-22.123-2.394-32.17-6.962zm124.906-70.774c0-15.19-3.708-30.063-10.758-43.374l34.363-34.362h58.906c3.144 18.125 17.477 32.458 35.602 35.602v84.269c-18.125 3.143-32.458 17.477-35.602 35.602h-124.738c25.4-16.562 42.227-45.22 42.227-77.737z"/></g></svg>