<svg id="Capa_1" enable-background="new 0 0 512 512" height="512" viewBox="0 0 512 512" width="512" xmlns="http://www.w3.org/2000/svg"><g><g><g><path d="m371.905 0c-77.03 0-139.698 62.669-139.698 139.699s62.668 139.698 139.698 139.698 139.698-62.668 139.698-139.698-62.668-139.699-139.698-139.699zm0 264.416c-68.769 0-124.717-55.948-124.717-124.717 0-68.77 55.948-124.718 124.717-124.718s124.716 55.948 124.716 124.718c0 68.769-55.947 124.717-124.716 124.717z"/><path d="m461.3 129.743c3.008-3.606 4.824-8.239 4.824-13.291 0-11.459-9.323-20.783-20.782-20.783h-39.828c3.549-14.477 4.965-27.901 4.208-39.934-.718-11.374-10.198-20.284-21.585-20.284h-1.415c-11.144 0-20.21 9.066-20.21 20.21 0 .233.011.467.033.699.022.245 1.986 24.686-24.527 45.37-3.484 2.718-6.896 5.181-9.806 7.203-2.205-2.399-5.358-3.915-8.866-3.915h-33.603c-6.648 0-12.056 5.408-12.056 12.056v78.502c0 6.648 5.408 12.056 12.056 12.056h33.603c4.076 0 7.679-2.038 9.862-5.143l3.494 2.17c11.113 6.904 20.127 11.825 34.972 12.286.079.003.158.004.236.004 4.029 0 7.357-3.203 7.483-7.259.129-4.135-3.119-7.591-7.255-7.719-10.79-.334-16.954-3.467-27.532-10.038l-9.204-5.717v-61.355c3.66-2.405 9.579-6.442 15.831-11.32 31.085-24.25 30.527-53.767 30.265-58.086.108-2.789 2.41-5.024 5.225-5.024h1.415c3.499 0 6.412 2.743 6.633 6.244.484 7.679.109 20.48-4.42 37.852-1.012 3.885-.183 7.937 2.273 11.115 2.459 3.182 6.175 5.007 10.194 5.007h42.526c3.198 0 5.8 2.602 5.8 5.801 0 3.198-2.602 5.801-5.8 5.801h-31.596c-4.137 0-7.491 3.353-7.491 7.491s3.353 7.491 7.491 7.491h31.596c3.198 0 5.8 2.602 5.8 5.801s-2.602 5.801-5.8 5.801h-31.596c-4.137 0-7.491 3.353-7.491 7.491s3.353 7.491 7.491 7.491h31.596c3.198 0 5.8 2.602 5.8 5.802 0 3.198-2.602 5.8-5.8 5.8h-31.596c-4.137 0-7.491 3.354-7.491 7.491s3.353 7.491 7.491 7.491h21.288c3.198 0 5.8 2.602 5.8 5.801s-2.602 5.8-5.8 5.8h-28.786c-4.138 0-7.491 3.354-7.491 7.491s3.353 7.491 7.491 7.491h28.784c11.459 0 20.782-9.323 20.782-20.782 0-2.776-.557-5.421-1.548-7.844 6.998-3.348 11.856-10.477 11.856-18.739 0-5.052-1.816-9.686-4.824-13.292 3.008-3.606 4.824-8.239 4.824-13.292 0-5.052-1.816-9.686-4.824-13.292zm-140.88 62.909h-27.753v-72.652h27.645c-.034.289-.056.58-.056.875v69.405c0 .507.066 1.003.165 1.49v.882z"/><path d="m227.819 259.339c0-15.461-4.74-30.299-13.706-42.909-.854-1.201-1.112-2.827-.709-4.46 1.872-7.576 2.928-15.974 3.227-25.679.235-7.621-.281-15.418-1.535-23.178-.923-5.716-4.195-10.872-8.975-14.148-4.782-3.275-10.775-4.464-16.444-3.26-3.18.676-6.918 1.439-10.601 2.164-17.614 3.481-34.578 4.486-52.537 5.548-4.546.269-9.127.54-13.764.855-19.546 1.327-42.393 4.126-63.646 14.825-16.052 8.08-26.09 23.796-26.199 41.066-.007 1.317-.427 2.573-1.182 3.538-10.153 12.97-15.744 29.178-15.744 45.639v6.857c-3.522 4.85-5.607 10.809-5.607 17.248 0 16.223 13.198 29.422 29.421 29.422h2.851c2.832 34.022 25.883 62.384 57.074 73.001v11.362c-36.043 11.526-62.222 45.325-62.222 85.142v22.139c0 4.137 3.354 7.491 7.491 7.491h163.791c4.137 0 7.491-3.353 7.491-7.491v-22.139c0-13.089-2.767-25.706-8.224-37.499-1.737-3.755-6.188-5.389-9.944-3.653-3.754 1.737-5.389 6.19-3.652 9.944 4.538 9.807 6.839 20.307 6.839 31.208v14.648h-148.811v-14.648c0-31.781 20.04-58.946 48.139-69.585 3.072 11.632 13.682 20.234 26.266 20.234 12.579 0 23.186-8.596 26.262-20.222 7.974 3.004 15.443 7.345 22.013 12.953 3.147 2.684 7.875 2.313 10.561-.835 2.686-3.147 2.312-7.875-.834-10.561-9.092-7.759-19.599-13.54-30.836-17.123v-11.363c31.195-10.615 54.25-38.978 57.083-73.004h2.989c16.223 0 29.422-13.198 29.422-29.422 0-6.525-2.138-12.558-5.746-17.442v-6.663zm-195.468 38.545h-2.533c-7.962 0-14.44-6.478-14.44-14.44s6.478-14.44 14.44-14.44h2.533zm96.739 107.971c0 6.718-5.465 12.183-12.183 12.183s-12.183-5.465-12.183-12.183v-16.376c3.98.577 8.05.877 12.188.877 4.135 0 8.201-.299 12.178-.875zm57.401-100.06c0 38.366-31.213 69.579-69.579 69.579-38.079 0-69.095-30.751-69.558-68.722.072-.416-.022-55.47-.022-55.47 12.509 6.92 27.269 9.301 38.895 10.597 17.847 1.99 37.426 2.225 56.62.68 10.994-.884 19.773-2.406 27.628-4.791 4.985-1.514 9.355-3.272 13.364-5.379.898-.474 1.785-.971 2.652-1.488zm7.837-69.46c-4.42-2.371-9.775-2.127-13.978.64-1.108.73-2.283 1.423-3.485 2.057-3.157 1.658-6.671 3.065-10.741 4.301-6.803 2.066-14.58 3.398-24.477 4.194-18.258 1.469-36.847 1.248-53.759-.637-10.699-1.192-24.314-3.365-34.694-9.618-.035-.021-.069-.043-.103-.063-4.229-2.57-9.525-2.672-13.822-.263-4.316 2.419-6.903 6.823-6.919 11.781l-.017 5.295h-2.514c-3.021 0-5.937.459-8.682 1.309.81-11.731 5.136-23.105 12.41-32.397 2.789-3.565 4.34-8.072 4.366-12.729.073-11.565 6.952-22.188 17.953-27.727 18.872-9.501 39.872-12.035 57.924-13.261 4.593-.311 9.132-.579 13.635-.847 18.484-1.093 35.942-2.126 54.619-5.818 3.679-.724 7.496-1.503 10.746-2.194 3.572-.76 6.938 1.557 7.517 5.143 1.102 6.82 1.556 13.658 1.35 20.326-.266 8.635-1.181 16.01-2.797 22.547-1.451 5.876-.342 11.977 3.044 16.737 6.367 8.953 10.054 19.315 10.79 30.181-2.707-.824-5.577-1.271-8.55-1.271h-2.652l-.019-5.774c-.017-4.991-2.754-9.556-7.145-11.912zm9.815 61.549h-2.671v-28.88h2.671c7.962 0 14.44 6.479 14.44 14.44.001 7.962-6.477 14.44-14.44 14.44z"/><path d="m85.908 279.824c-4.137 0-7.491 3.353-7.491 7.491v14.256c0 4.137 3.354 7.491 7.491 7.491s7.491-3.353 7.491-7.491v-14.256c0-4.138-3.354-7.491-7.491-7.491z"/><path d="m147.916 279.824c-4.137 0-7.491 3.353-7.491 7.491v14.256c0 4.137 3.354 7.491 7.491 7.491s7.491-3.353 7.491-7.491v-14.256c0-4.138-3.354-7.491-7.491-7.491z"/></g></g></g></svg>